<svg width="24" height="24" viewBox="0 0 24 24" fill="none" xmlns="http://www.w3.org/2000/svg">
<path d="M18.8696 13C18.3696 13 17.9596 13.37 17.8896 13.86C17.4096 17.23 14.1196 19.7 10.4696 18.82C8.21958 18.28 6.55958 16.55 6.07958 14.29C5.26958 10.42 8.21958 7.00003 11.9496 7.00003V9.79003C11.9496 10.24 12.4896 10.46 12.7996 10.14L16.5896 6.35003C16.7896 6.15003 16.7896 5.84003 16.5896 5.64003L12.7996 1.85003C12.4896 1.54003 11.9496 1.76003 11.9496 2.20003V5.00003C7.00958 5.00003 3.10958 9.48003 4.10958 14.6C4.70958 17.71 7.00958 20.1 10.0996 20.79C14.9296 21.87 19.2496 18.59 19.8696 14.12C19.9596 13.53 19.4696 13 18.8696 13ZM12.4296 15.15C12.3796 15.22 12.3196 15.28 12.2496 15.32C12.1796 15.36 12.0796 15.38 11.9796 15.38C11.8096 15.38 11.6696 15.33 11.5596 15.23C11.4496 15.13 11.3896 14.99 11.3696 14.82H10.5296C10.5396 15.02 10.5796 15.19 10.6596 15.35C10.7396 15.51 10.8496 15.63 10.9796 15.74C11.1096 15.85 11.2696 15.93 11.4396 15.98C11.6096 16.03 11.7896 16.06 11.9696 16.06C12.2096 16.06 12.4296 16.02 12.6096 15.94C12.7896 15.86 12.9396 15.76 13.0596 15.63C13.1796 15.5 13.2696 15.35 13.3296 15.18C13.3896 15.01 13.4196 14.83 13.4196 14.64C13.4196 14.42 13.3896 14.21 13.3296 14.04C13.2696 13.87 13.1896 13.71 13.0796 13.59C12.9696 13.47 12.8296 13.37 12.6696 13.31C12.5096 13.25 12.3296 13.21 12.1196 13.21C12.0496 13.21 11.9796 13.22 11.9196 13.23C11.8596 13.24 11.7896 13.25 11.7396 13.27C11.6896 13.29 11.6396 13.3 11.5896 13.32C11.5396 13.34 11.5096 13.36 11.4796 13.37L11.5896 12.45H13.2896V11.74H10.8996L10.6496 13.91L11.3196 14.08C11.3496 14.05 11.3796 14.02 11.4196 13.99C11.4596 13.96 11.4896 13.94 11.5396 13.92C11.5896 13.9 11.6396 13.88 11.6896 13.87C11.7396 13.86 11.8196 13.85 11.8896 13.85C12.0096 13.85 12.1096 13.87 12.1896 13.9C12.2696 13.93 12.3496 13.99 12.3996 14.05C12.4496 14.11 12.4996 14.19 12.5296 14.29C12.5596 14.39 12.5696 14.48 12.5696 14.6C12.5696 14.72 12.5596 14.82 12.5396 14.91C12.5196 15 12.4796 15.08 12.4296 15.15Z" fill="#1F2937"/>
</svg>
