<svg width="24" height="24" viewBox="0 0 24 24" fill="none" xmlns="http://www.w3.org/2000/svg">
<path d="M18.9204 12.9999C18.4204 12.9999 18.0104 13.3699 17.9404 13.8599C17.4604 17.2299 14.1704 19.6999 10.5204 18.8199C8.27036 18.2799 6.61036 16.5499 6.13036 14.2899C5.32036 10.4199 8.27036 6.99994 12.0004 6.99994V9.78994C12.0004 10.2399 12.5404 10.4599 12.8504 10.1399L16.6404 6.34994C16.8404 6.14994 16.8404 5.83994 16.6404 5.63994L12.8504 1.84994C12.5404 1.53994 12.0004 1.75994 12.0004 2.20994V4.99994C7.06036 4.99994 3.16036 9.47994 4.16036 14.5999C4.76036 17.7099 7.06036 20.0999 10.1504 20.7899C14.9804 21.8699 19.3004 18.5899 19.9204 14.1199C20.0104 13.5299 19.5204 12.9999 18.9204 12.9999ZM10.5404 15.2199C10.4804 15.2699 10.4204 15.3099 10.3404 15.3399C10.2604 15.3699 10.1704 15.3799 10.0704 15.3799C9.98036 15.3799 9.90036 15.3699 9.82036 15.3399C9.74036 15.3099 9.68036 15.2799 9.62036 15.2299C9.56036 15.1799 9.52036 15.1299 9.49036 15.0599C9.46036 14.9899 9.44036 14.9199 9.44036 14.8399H8.59036C8.59036 15.0499 8.63036 15.2299 8.71036 15.3899C8.79036 15.5499 8.90036 15.6699 9.04036 15.7699C9.18036 15.8699 9.33036 15.9499 9.50036 15.9999C9.67036 16.0499 9.85036 16.0699 10.0304 16.0699C10.2404 16.0699 10.4404 16.0399 10.6304 15.9899C10.8204 15.9399 10.9704 15.8499 11.1104 15.7499C11.2504 15.6499 11.3504 15.5099 11.4304 15.3599C11.5104 15.2099 11.5504 15.0299 11.5504 14.8299C11.5504 14.5999 11.4904 14.3899 11.3704 14.2199C11.2504 14.0499 11.0704 13.9199 10.8304 13.8299C10.9304 13.7799 11.0304 13.7299 11.1104 13.6599C11.1904 13.5899 11.2604 13.5199 11.3104 13.4399C11.3604 13.3599 11.4104 13.2799 11.4404 13.1899C11.4704 13.0999 11.4804 13.0099 11.4804 12.9199C11.4804 12.7199 11.4404 12.5499 11.3704 12.3899C11.3004 12.2299 11.2004 12.1099 11.0704 12.0099C10.9404 11.9099 10.7904 11.8299 10.6104 11.7799C10.4304 11.7299 10.2404 11.6999 10.0204 11.6999C9.83036 11.6999 9.64036 11.7299 9.48036 11.7799C9.32036 11.8299 9.16036 11.9099 9.04036 12.0099C8.92036 12.1099 8.81036 12.2299 8.74036 12.3799C8.67036 12.5299 8.63036 12.6799 8.63036 12.8599H9.48036C9.48036 12.7899 9.50036 12.7199 9.53036 12.6599C9.56036 12.5999 9.60036 12.5499 9.65036 12.5099C9.70036 12.4699 9.76036 12.4399 9.83036 12.4099C9.90036 12.3799 9.97036 12.3799 10.0504 12.3799C10.1504 12.3799 10.2304 12.3899 10.3004 12.4199C10.3704 12.4499 10.4304 12.4799 10.4804 12.5299C10.5304 12.5799 10.5604 12.6399 10.5904 12.6999C10.6204 12.7599 10.6304 12.8399 10.6304 12.9199C10.6304 13.0999 10.5804 13.2399 10.4704 13.3499C10.3604 13.4599 10.2104 13.5099 9.99036 13.5099H9.56036V14.1699H10.0104C10.1204 14.1699 10.2104 14.1799 10.3004 14.2099C10.3904 14.2399 10.4604 14.2699 10.5204 14.3199C10.5804 14.3699 10.6304 14.4399 10.6604 14.5199C10.6904 14.5999 10.7104 14.6999 10.7104 14.8099C10.7104 14.8999 10.7004 14.9799 10.6704 15.0499C10.6404 15.1199 10.5904 15.1599 10.5404 15.2199ZM14.4404 11.7799C14.2604 11.7099 14.0704 11.6799 13.8504 11.6799C13.6304 11.6799 13.4404 11.7099 13.2604 11.7799C13.0804 11.8499 12.9304 11.9599 12.8104 12.1099C12.6904 12.2599 12.5804 12.4499 12.5204 12.6799C12.4604 12.9099 12.4204 13.1799 12.4204 13.4999V14.2399C12.4204 14.5599 12.4604 14.8399 12.5304 15.0599C12.6004 15.2799 12.7004 15.4799 12.8304 15.6299C12.9604 15.7799 13.1104 15.8899 13.2904 15.9599C13.4704 16.0299 13.6604 16.0599 13.8804 16.0599C14.1004 16.0599 14.2904 16.0299 14.4704 15.9599C14.6504 15.8899 14.8004 15.7799 14.9204 15.6299C15.0404 15.4799 15.1404 15.2899 15.2104 15.0599C15.2804 14.8299 15.3104 14.5599 15.3104 14.2399V13.4999C15.3104 13.1799 15.2704 12.8999 15.2004 12.6799C15.1304 12.4599 15.0304 12.2599 14.9004 12.1099C14.7704 11.9599 14.6204 11.8499 14.4404 11.7799ZM14.4504 14.3499C14.4504 14.5399 14.4404 14.6999 14.4104 14.8299C14.3804 14.9599 14.3504 15.0699 14.3004 15.1499C14.2504 15.2299 14.1904 15.2899 14.1104 15.3199C14.0304 15.3499 13.9504 15.3699 13.8604 15.3699C13.7704 15.3699 13.6804 15.3499 13.6104 15.3199C13.5404 15.2899 13.4704 15.2299 13.4204 15.1499C13.3704 15.0699 13.3304 14.9599 13.3004 14.8299C13.2704 14.6999 13.2604 14.5399 13.2604 14.3499V13.3799C13.2604 13.1899 13.2704 13.0299 13.3004 12.8999C13.3304 12.7699 13.3604 12.6699 13.4204 12.5899C13.4804 12.5099 13.5304 12.4499 13.6104 12.4199C13.6904 12.3899 13.7704 12.3699 13.8604 12.3699C13.9504 12.3699 14.0404 12.3899 14.1104 12.4199C14.1804 12.4499 14.2504 12.5099 14.3004 12.5899C14.3504 12.6699 14.3904 12.7699 14.4204 12.8999C14.4504 13.0299 14.4604 13.1899 14.4604 13.3799V14.3499H14.4504Z" fill="#1F2937"/>
</svg>
