<svg width="24" height="24" viewBox="0 0 24 24" fill="none" xmlns="http://www.w3.org/2000/svg">
<path d="M18.9204 12.9999C18.4204 12.9999 18.0104 13.3699 17.9404 13.8599C17.4604 17.2299 14.1704 19.6999 10.5204 18.8199C8.27036 18.2799 6.61036 16.5499 6.13036 14.2899C5.32036 10.4199 8.27036 6.99994 12.0004 6.99994V9.78994C12.0004 10.2399 12.5404 10.4599 12.8504 10.1399L16.6404 6.34994C16.8404 6.14994 16.8404 5.83994 16.6404 5.63994L12.8504 1.84994C12.5404 1.53994 12.0004 1.75994 12.0004 2.20994V4.99994C7.06036 4.99994 3.16036 9.47994 4.16036 14.5999C4.76036 17.7099 7.06036 20.0999 10.1504 20.7899C14.9804 21.8699 19.3004 18.5899 19.9204 14.1199C20.0104 13.5299 19.5204 12.9999 18.9204 12.9999ZM10.9004 15.9999V11.7299H10.8104L9.04036 12.3599V13.0499L10.0504 12.7399V15.9999H10.9004ZM14.3204 11.7799C14.1404 11.7099 13.9504 11.6799 13.7304 11.6799C13.5104 11.6799 13.3204 11.7099 13.1404 11.7799C12.9604 11.8499 12.8104 11.9599 12.6904 12.1099C12.5704 12.2599 12.4604 12.4499 12.4004 12.6799C12.3404 12.9099 12.3004 13.1799 12.3004 13.4999V14.2399C12.3004 14.5599 12.3404 14.8399 12.4104 15.0599C12.4804 15.2799 12.5804 15.4799 12.7104 15.6299C12.8404 15.7799 12.9904 15.8899 13.1704 15.9599C13.3504 16.0299 13.5404 16.0599 13.7604 16.0599C13.9804 16.0599 14.1704 16.0299 14.3504 15.9599C14.5304 15.8899 14.6804 15.7799 14.8004 15.6299C14.9204 15.4799 15.0204 15.2899 15.0904 15.0599C15.1604 14.8299 15.1904 14.5599 15.1904 14.2399V13.4999C15.1904 13.1799 15.1504 12.8999 15.0804 12.6799C15.0104 12.4599 14.9104 12.2599 14.7804 12.1099C14.6504 11.9599 14.4904 11.8499 14.3204 11.7799ZM14.3304 14.3499C14.3304 14.5399 14.3204 14.6999 14.2904 14.8299C14.2604 14.9599 14.2304 15.0699 14.1804 15.1499C14.1304 15.2299 14.0704 15.2899 13.9904 15.3199C13.9104 15.3499 13.8304 15.3699 13.7404 15.3699C13.6504 15.3699 13.5604 15.3499 13.4904 15.3199C13.4204 15.2899 13.3504 15.2299 13.3004 15.1499C13.2504 15.0699 13.2104 14.9599 13.1804 14.8299C13.1504 14.6999 13.1404 14.5399 13.1404 14.3499V13.3799C13.1404 13.1899 13.1504 13.0299 13.1804 12.8999C13.2104 12.7699 13.2404 12.6699 13.3004 12.5899C13.3604 12.5099 13.4104 12.4499 13.4904 12.4199C13.5704 12.3899 13.6504 12.3699 13.7404 12.3699C13.8304 12.3699 13.9204 12.3899 13.9904 12.4199C14.0604 12.4499 14.1304 12.5099 14.1804 12.5899C14.2304 12.6699 14.2704 12.7699 14.3004 12.8999C14.3304 13.0299 14.3404 13.1899 14.3404 13.3799V14.3499H14.3304Z" fill="#1F2937"/>
</svg>
