<svg width="24" height="24" viewBox="0 0 24 24" fill="none" xmlns="http://www.w3.org/2000/svg">
<path d="M11.9903 5.00003V2.21003C11.9903 1.76003 11.4503 1.54003 11.1403 1.86003L7.35026 5.65003C7.15026 5.85003 7.15026 6.16003 7.35026 6.36003L11.1403 10.15C11.4503 10.46 11.9903 10.24 11.9903 9.80003V7.00003C15.7203 7.00003 18.6703 10.42 17.8503 14.29C17.3803 16.56 15.5403 18.39 13.2803 18.86C9.71026 19.61 6.53026 17.16 6.05026 13.85C5.99026 13.37 5.57026 13 5.07026 13C4.47026 13 3.99026 13.53 4.07026 14.13C4.69026 18.52 8.87026 21.77 13.6003 20.85C16.7203 20.24 19.2303 17.73 19.8403 14.61C20.8303 9.48003 16.9403 5.00003 11.9903 5.00003ZM10.8903 16H10.0403V12.74L9.03026 13.05V12.36L10.8003 11.73H10.8903V16ZM15.1703 14.24C15.1703 14.56 15.1403 14.84 15.0703 15.06C15.0003 15.28 14.9003 15.48 14.7803 15.63C14.6603 15.78 14.5003 15.89 14.3303 15.96C14.1603 16.03 13.9603 16.06 13.7403 16.06C13.5203 16.06 13.3303 16.03 13.1503 15.96C12.9703 15.89 12.8203 15.78 12.6903 15.63C12.5603 15.48 12.4603 15.29 12.3903 15.06C12.3203 14.83 12.2803 14.56 12.2803 14.24V13.5C12.2803 13.18 12.3103 12.9 12.3803 12.68C12.4503 12.46 12.5503 12.26 12.6703 12.11C12.7903 11.96 12.9503 11.85 13.1203 11.78C13.2903 11.71 13.4903 11.68 13.7103 11.68C13.9303 11.68 14.1203 11.71 14.3003 11.78C14.4803 11.85 14.6303 11.96 14.7603 12.11C14.8903 12.26 14.9903 12.45 15.0603 12.68C15.1303 12.91 15.1703 13.18 15.1703 13.5V14.24ZM14.3203 13.38C14.3203 13.19 14.3103 13.03 14.2803 12.9C14.2503 12.77 14.2103 12.67 14.1603 12.59C14.1103 12.51 14.0503 12.45 13.9703 12.42C13.8903 12.39 13.8103 12.37 13.7203 12.37C13.6303 12.37 13.5403 12.39 13.4703 12.42C13.4003 12.45 13.3303 12.51 13.2803 12.59C13.2303 12.67 13.1903 12.77 13.1603 12.9C13.1303 13.03 13.1203 13.19 13.1203 13.38V14.35C13.1203 14.54 13.1303 14.7 13.1603 14.83C13.1903 14.96 13.2303 15.07 13.2803 15.15C13.3303 15.23 13.3903 15.29 13.4703 15.32C13.5503 15.35 13.6303 15.37 13.7203 15.37C13.8103 15.37 13.9003 15.35 13.9703 15.32C14.0403 15.29 14.1103 15.23 14.1603 15.15C14.2103 15.07 14.2503 14.96 14.2703 14.83C14.2903 14.7 14.3103 14.54 14.3103 14.35V13.38H14.3203Z" fill="#1F2937"/>
</svg>
