<svg width="24" height="24" viewBox="0 0 24 24" fill="none" xmlns="http://www.w3.org/2000/svg">
<path d="M9.99986 8.5001V15.5001C9.99986 15.9101 10.4699 16.1501 10.7999 15.9001L15.4699 12.4001C15.7399 12.2001 15.7399 11.8001 15.4699 11.6001L10.7999 8.1001C10.4699 7.8501 9.99986 8.0901 9.99986 8.5001ZM10.9999 3.2301C10.9999 2.5901 10.4099 2.1001 9.78986 2.2401C8.66986 2.5001 7.60986 2.9401 6.66986 3.5401C6.13986 3.8801 6.05986 4.6401 6.50986 5.0901C6.82986 5.4101 7.33986 5.4901 7.71986 5.2501C8.48986 4.7601 9.33986 4.4001 10.2599 4.2001C10.6999 4.1001 10.9999 3.6901 10.9999 3.2301ZM5.09986 6.5101C4.63986 6.0601 3.88986 6.1301 3.54986 6.6701C2.94986 7.6101 2.50986 8.6701 2.24986 9.7901C2.10986 10.4101 2.58986 11.0001 3.22986 11.0001C3.67986 11.0001 4.09986 10.7001 4.18986 10.2601C4.38986 9.3501 4.75986 8.4901 5.23986 7.7301C5.49986 7.3401 5.41986 6.8301 5.09986 6.5101ZM3.22986 13.0001C2.58986 13.0001 2.09986 13.5901 2.23986 14.2101C2.49986 15.3301 2.93986 16.3801 3.53986 17.3301C3.87986 17.8701 4.63986 17.9401 5.08986 17.4901C5.40986 17.1701 5.48986 16.6601 5.23986 16.2801C4.74986 15.5201 4.38986 14.6701 4.18986 13.7501C4.09986 13.3001 3.68986 13.0001 3.22986 13.0001ZM6.66986 20.4501C7.61986 21.0501 8.66986 21.4901 9.78986 21.7501C10.4099 21.8901 10.9999 21.4001 10.9999 20.7701C10.9999 20.3201 10.6999 19.9001 10.2599 19.8101C9.34986 19.6101 8.48986 19.2401 7.72986 18.7601C7.33986 18.5201 6.83986 18.5901 6.51986 18.9201C6.05986 19.3601 6.12986 20.1101 6.66986 20.4501ZM21.9999 12.0001C21.9999 16.7301 18.6999 20.7101 14.2699 21.7401C13.6499 21.8901 13.0499 21.4001 13.0499 20.7601C13.0499 20.3001 13.3599 19.9001 13.7999 19.7901C17.3499 18.9701 19.9999 15.7901 19.9999 12.0001C19.9999 8.2101 17.3499 5.0301 13.7999 4.2101C13.3599 4.1101 13.0499 3.7001 13.0499 3.2401C13.0499 2.6001 13.6499 2.1101 14.2699 2.2601C18.6999 3.2901 21.9999 7.2701 21.9999 12.0001Z" fill="#1F2937"/>
</svg>
