<svg width="16" height="16" viewBox="0 0 16 16" fill="none" xmlns="http://www.w3.org/2000/svg">
<path d="M12.2 3.5H3.8C3.32261 3.5 2.86477 3.67779 2.52721 3.99426C2.18964 4.31072 2 4.73995 2 5.1875V10.8125C2 11.2601 2.18964 11.6893 2.52721 12.0057C2.86477 12.3222 3.32261 12.5 3.8 12.5H12.2C12.6774 12.5 13.1352 12.3222 13.4728 12.0057C13.8104 11.6893 14 11.2601 14 10.8125V5.1875C14 4.73995 13.8104 4.31072 13.4728 3.99426C13.1352 3.67779 12.6774 3.5 12.2 3.5ZM11.798 4.625L8 7.29688L4.202 4.625H11.798ZM12.2 11.375H3.8C3.64087 11.375 3.48826 11.3157 3.37574 11.2102C3.26321 11.1048 3.2 10.9617 3.2 10.8125V5.32812L7.64 8.45C7.74386 8.52303 7.87018 8.5625 8 8.5625C8.12982 8.5625 8.25614 8.52303 8.36 8.45L12.8 5.32812V10.8125C12.8 10.9617 12.7368 11.1048 12.6243 11.2102C12.5117 11.3157 12.3591 11.375 12.2 11.375Z" fill="#1F2937"/>
</svg>
