<svg width="24" height="24" viewBox="0 0 24 24" fill="none" xmlns="http://www.w3.org/2000/svg">
<g clip-path="url(#clip0_597_5710)">
<path d="M20.0004 12.1995C20.0004 11.4616 19.9425 10.9231 19.8173 10.3647H11.6738V13.6952H16.4538C16.3575 14.5228 15.8371 15.7693 14.6806 16.6068L14.6644 16.7183L17.2392 18.7822L17.4176 18.8006C19.0559 17.235 20.0004 14.9316 20.0004 12.1995Z" fill="#4285F4"/>
<path d="M11.6731 20.9743C14.0149 20.9743 15.9809 20.1765 17.4169 18.8005L14.6799 16.6067C13.9475 17.1352 12.9645 17.5042 11.6731 17.5042C9.37949 17.5042 7.43279 15.9387 6.73885 13.7749L6.63713 13.7838L3.95982 15.9277L3.9248 16.0284C5.35109 18.96 8.28081 20.9743 11.6731 20.9743Z" fill="#34A853"/>
<path d="M6.73919 13.7748C6.55609 13.2164 6.45012 12.6181 6.45012 11.9999C6.45012 11.3816 6.55609 10.7834 6.72956 10.225L6.72471 10.106L4.01384 7.92773L3.92515 7.97139C3.33731 9.18792 3 10.554 3 11.9999C3 13.4457 3.33731 14.8118 3.92515 16.0283L6.73919 13.7748Z" fill="#FBBC05"/>
<path d="M11.6731 6.49567C13.3018 6.49567 14.4004 7.22358 15.0268 7.83188L17.4747 5.35895C15.9713 3.9131 14.0149 3.02563 11.6731 3.02563C8.28081 3.02563 5.35109 5.03985 3.9248 7.97143L6.72922 10.225C7.43279 8.0612 9.37949 6.49567 11.6731 6.49567Z" fill="#EB4335"/>
</g>
<defs>
<clipPath id="clip0_597_5710">
<rect width="17" height="18" fill="white" transform="translate(3 3)"/>
</clipPath>
</defs>
</svg>
