<svg width="24" height="24" viewBox="0 0 24 24" fill="none" xmlns="http://www.w3.org/2000/svg">
<path d="M4.08664 6.47701C4.51054 6.05309 5.01379 5.71682 5.56765 5.4874C6.12151 5.25798 6.71514 5.13989 7.31464 5.13989C7.91414 5.13989 8.50776 5.25798 9.06163 5.4874C9.61549 5.71682 10.1187 6.05309 10.5426 6.47701L11.9996 7.93401L13.4566 6.47701C14.3129 5.62089 15.4742 5.13998 16.685 5.14007C17.8958 5.14017 19.057 5.62126 19.9131 6.47751C20.7693 7.33376 21.2502 8.49503 21.2501 9.70586C21.25 10.9167 20.7689 12.0779 19.9126 12.934L18.4556 14.39L18.4686 14.403L12.0126 20.86L11.9996 20.847L11.9866 20.86L5.53064 14.403L5.54364 14.39L4.08664 12.934C3.66257 12.5101 3.32618 12.0068 3.09666 11.4528C2.86715 10.8989 2.74902 10.3051 2.74902 9.70551C2.74902 9.10589 2.86715 8.51215 3.09666 7.95819C3.32618 7.40424 3.66257 6.90093 4.08664 6.47701Z" stroke="#1F2937" stroke-width="1.5" stroke-linejoin="round"/>
</svg>
