<svg width="20" height="20" viewBox="0 0 20 20" fill="none" xmlns="http://www.w3.org/2000/svg">
<path d="M10 18.3333C14.6024 18.3333 18.3333 14.6024 18.3333 10C18.3333 5.39763 14.6024 1.66667 10 1.66667C5.39763 1.66667 1.66667 5.39763 1.66667 10C1.66667 14.6024 5.39763 18.3333 10 18.3333Z" stroke="currentColor" stroke-width="1.66667" stroke-linecap="round" stroke-linejoin="round"/>
<path d="M7.575 7.49997C7.77092 6.94302 8.15762 6.47339 8.66663 6.17424C9.17563 5.8751 9.77408 5.76575 10.356 5.86556C10.9379 5.96537 11.4657 6.2679 11.8459 6.71957C12.2261 7.17124 12.4342 7.7429 12.4333 8.3333C12.4333 9.99997 9.93333 10.8333 9.93333 10.8333" stroke="currentColor" stroke-width="1.66667" stroke-linecap="round" stroke-linejoin="round"/>
<path d="M10 14.1667H10.0083" stroke="currentColor" stroke-width="1.66667" stroke-linecap="round" stroke-linejoin="round"/>
</svg>
