<svg width="24" height="24" viewBox="0 0 24 24" fill="none" xmlns="http://www.w3.org/2000/svg">
<path d="M12.8923 2.81003L21.4883 9.59503C21.7083 9.76838 21.8688 10.006 21.9474 10.2748C22.0261 10.5436 22.019 10.8302 21.9271 11.0948C21.8353 11.3594 21.6632 11.5888 21.4349 11.751C21.2066 11.9133 20.9334 12.0003 20.6533 12H20.0003V15.5C20.0003 18.328 20.0003 19.743 19.1213 20.621C18.2433 21.5 16.8283 21.5 14.0003 21.5H10.0003C7.17233 21.5 5.75733 21.5 4.87933 20.621C4.00033 19.743 4.00033 18.328 4.00033 15.5V12H3.34733C3.06725 12.0003 2.79406 11.9133 2.56575 11.751C2.33745 11.5888 2.1654 11.3594 2.07354 11.0948C1.98167 10.8302 1.97457 10.5436 2.05322 10.2748C2.13186 10.006 2.29234 9.76838 2.51233 9.59503L11.1083 2.81003C11.3624 2.60953 11.6767 2.50049 12.0003 2.50049C12.324 2.50049 12.6382 2.60953 12.8923 2.81003Z" stroke="currentColor" stroke-width="1.5" stroke-linecap="round" stroke-linejoin="round"/>
<path d="M14.5 21.5V17C14.5 16.065 14.5 15.598 14.299 15.25C14.1674 15.022 13.978 14.8326 13.75 14.701C13.402 14.5 12.935 14.5 12 14.5C11.065 14.5 10.598 14.5 10.25 14.701C10.022 14.8326 9.83265 15.022 9.701 15.25C9.5 15.598 9.5 16.065 9.5 17V21.5" stroke="currentColor" stroke-width="1.5" stroke-linecap="round" stroke-linejoin="round"/>
</svg>
