<svg width="24" height="24" viewBox="0 0 24 24" fill="none" xmlns="http://www.w3.org/2000/svg">
<path d="M10.2676 21C10.4431 21.304 10.6956 21.5565 10.9996 21.732C11.3037 21.9075 11.6485 21.9999 11.9996 21.9999C12.3506 21.9999 12.6955 21.9075 12.9995 21.732C13.3036 21.5565 13.556 21.304 13.7316 21" stroke="currentColor" stroke-width="1.66667" stroke-linecap="round" stroke-linejoin="round"/>
<path d="M3.26225 16.326C3.13161 16.4692 3.0454 16.6472 3.0141 16.8385C2.9828 17.0298 3.00777 17.226 3.08595 17.4034C3.16414 17.5807 3.29218 17.7316 3.4545 17.8375C3.61682 17.9434 3.80642 17.9999 4.00025 18H20.0002C20.194 18.0001 20.3837 17.9438 20.5461 17.8381C20.7085 17.7324 20.8367 17.5817 20.9151 17.4045C20.9935 17.2273 21.0187 17.0311 20.9877 16.8398C20.9566 16.6485 20.8707 16.4703 20.7402 16.327C19.4102 14.956 18.0002 13.499 18.0002 9C18.0002 7.4087 17.3681 5.88258 16.2429 4.75736C15.1177 3.63214 13.5915 3 12.0002 3C10.4089 3 8.88282 3.63214 7.75761 4.75736C6.63239 5.88258 6.00025 7.4087 6.00025 9C6.00025 13.499 4.58925 14.956 3.26225 16.326Z" stroke="currentColor" stroke-width="1.66667" stroke-linecap="round" stroke-linejoin="round"/>
</svg>
