<svg width="16" height="16" viewBox="0 0 16 16" fill="none" xmlns="http://www.w3.org/2000/svg">
<g clip-path="url(#clip0_127_16200)">
<path d="M11.333 9.33325V1.33325" stroke="#1F2937" stroke-width="1.33333" stroke-linecap="round" stroke-linejoin="round"/>
<path d="M5.99962 12.0799L6.66629 9.33325H2.77962C2.57263 9.33325 2.36848 9.28506 2.18334 9.19249C1.9982 9.09992 1.83715 8.96551 1.71296 8.79992C1.58876 8.63432 1.50482 8.44209 1.4678 8.23843C1.43077 8.03478 1.44166 7.8253 1.49962 7.62658L3.05296 2.29325C3.13373 2.0163 3.30216 1.77301 3.53296 1.59992C3.76375 1.42682 4.04446 1.33325 4.33296 1.33325H13.333C13.6866 1.33325 14.0257 1.47373 14.2758 1.72378C14.5258 1.97382 14.6663 2.31296 14.6663 2.66659V7.99992C14.6663 8.35354 14.5258 8.69268 14.2758 8.94273C14.0257 9.19278 13.6866 9.33325 13.333 9.33325H11.493C11.2449 9.33338 11.0018 9.40271 10.791 9.53344C10.5802 9.66417 10.41 9.85111 10.2996 10.0733L7.99962 14.6666C7.68524 14.6627 7.3758 14.5878 7.09442 14.4475C6.81304 14.3072 6.567 14.1052 6.37469 13.8564C6.18237 13.6077 6.04874 13.3187 5.9838 13.0111C5.91885 12.7035 5.92426 12.3852 5.99962 12.0799Z" stroke="#1F2937" stroke-width="1.33333" stroke-linecap="round" stroke-linejoin="round"/>
</g>
<defs>
<clipPath id="clip0_127_16200">
<rect width="16" height="16" fill="white"/>
</clipPath>
</defs>
</svg>
