<svg width="16" height="16" viewBox="0 0 16 16" fill="none" xmlns="http://www.w3.org/2000/svg">
<path d="M8 0C12.4183 0 16 3.58172 16 8C16 12.4183 12.4183 16 8 16C3.58172 16 0 12.4183 0 8C0 3.58172 3.58172 0 8 0ZM8 1C4.13401 1 1 4.13401 1 8C1 11.866 4.13401 15 8 15C11.866 15 15 11.866 15 8C15 4.13401 11.866 1 8 1ZM7.5 3.5C7.77614 3.5 8 3.72386 8 4V8H12C12.2761 8 12.5 8.22386 12.5 8.5C12.5 8.77614 12.2761 9 12 9H7.5C7.22386 9 7 8.77614 7 8.5V4C7 3.72386 7.22386 3.5 7.5 3.5Z" fill="#1F2937"/>
</svg>
